<?xml version="1.0" standalone="no"?>
<!DOCTYPE svg PUBLIC "-//W3C//DTD SVG 20010904//EN"
 "http://www.w3.org/TR/2001/REC-SVG-20010904/DTD/svg10.dtd">
<svg version="1.0" xmlns="http://www.w3.org/2000/svg"
 width="905.000000pt" height="957.000000pt" viewBox="0 0 905.000000 957.000000"
 preserveAspectRatio="xMidYMid meet">
<metadata>
Created by potrace 1.16, written by Peter Selinger 2001-2019
</metadata>
<g transform="translate(0.000000,957.000000) scale(0.100000,-0.100000)"
fill="#000000" stroke="none">
<path d="M3128 9443 c-2 -43 -5 -244 -6 -448 l-3 -370 -55 -55 c-51 -52 -60
-56 -132 -70 -89 -18 -42 -30 -416 104 -131 47 -243 83 -248 80 -20 -12 -3
-35 88 -114 53 -47 108 -96 123 -109 14 -13 43 -38 64 -56 l37 -32 -71 -49
c-132 -89 -285 -249 -381 -400 -104 -162 -187 -400 -206 -589 l-7 -68 -85 -51
c-309 -187 -659 -455 -822 -630 -42 -45 -41 -41 -65 -251 -27 -240 -24 -863 6
-1140 48 -446 129 -854 248 -1235 28 -93 33 -116 22 -123 -8 -4 -54 -31 -104
-59 -255 -144 -481 -375 -619 -632 -222 -413 -273 -935 -143 -1466 28 -115 36
-135 52 -135 16 0 21 14 36 95 62 338 221 601 497 822 132 105 319 205 401
213 25 3 90 11 145 19 56 8 130 16 165 18 l65 3 60 -104 59 -104 -23 -44 c-22
-42 -23 -46 -8 -71 9 -15 34 -34 56 -42 39 -15 40 -16 26 -40 -7 -14 -26 -61
-41 -105 -25 -75 -27 -91 -27 -260 0 -153 3 -189 20 -239 17 -53 23 -60 59
-74 67 -24 299 -27 428 -5 l109 19 96 -110 c449 -516 928 -928 1468 -1262
l109 -67 49 17 c67 24 301 127 416 183 569 277 1154 849 1605 1570 42 68 80
125 83 127 4 2 8 -22 9 -54 4 -131 104 -240 219 -240 234 0 488 466 444 815
-11 88 -18 99 -66 115 -32 11 -34 15 -34 54 0 65 -19 204 -39 282 l-18 70 34
85 c52 126 98 253 168 464 64 190 175 566 175 592 0 19 9 17 78 -17 35 -17
114 -46 176 -65 326 -98 616 -82 941 52 154 64 435 224 480 273 l18 20 -114
-6 c-255 -14 -550 57 -815 196 -184 97 -321 190 -493 334 l-83 70 5 51 c4 27
17 127 31 220 68 468 109 1201 72 1288 -7 18 -48 70 -91 117 -223 243 -470
442 -755 608 -448 261 -1029 444 -1582 498 -90 8 -173 17 -185 20 -13 2 -42
36 -79 91 -73 110 -223 266 -320 333 -78 54 -223 126 -309 153 -111 36 -228
51 -378 51 -145 -1 -147 -1 -153 22 -8 33 -38 56 -102 79 l-55 20 -136 410
c-150 453 -166 484 -173 338z m232 -623 l68 -205 -28 -27 c-26 -24 -134 -68
-144 -57 -2 2 -24 135 -50 294 -41 258 -46 307 -45 445 l0 155 66 -200 c36
-110 96 -292 133 -405z m113 -213 c-1 -39 -12 -63 -66 -144 -84 -128 -112
-185 -153 -313 -52 -159 -74 -269 -74 -367 0 -135 26 -179 174 -294 32 -25 22
-26 211 18 50 12 117 17 235 16 146 0 177 -3 265 -27 55 -14 147 -49 205 -78
92 -46 116 -63 200 -147 77 -78 103 -112 137 -181 63 -127 71 -148 102 -277
26 -103 30 -143 35 -313 3 -118 10 -216 19 -247 l14 -52 -36 -35 -36 -35 -27
67 c-35 83 -53 182 -73 387 -25 247 -51 335 -134 445 -148 197 -451 273 -846
212 -153 -24 -215 -39 -215 -51 0 -5 -35 -14 -77 -21 -43 -7 -146 -29 -228
-50 -142 -36 -247 -70 -825 -269 -129 -44 -274 -90 -324 -101 -116 -28 -120
-25 -124 103 -2 61 2 101 10 117 18 34 90 67 163 75 216 24 555 150 675 252
l31 26 160 -47 c183 -55 208 -55 267 -1 94 85 94 247 0 346 -29 30 -50 44 -63
42 -58 -10 -331 -40 -334 -37 -14 12 65 392 98 477 l11 29 80 -71 c106 -93
122 -103 154 -95 38 9 112 96 137 162 26 69 28 146 5 191 -18 35 -68 62 -178
96 l-57 18 31 43 c16 23 45 57 64 75 l34 33 0 -31 c0 -17 7 -36 15 -43 21 -18
141 -15 195 5 59 21 130 63 131 78 2 19 2 20 -6 46 -5 17 -4 22 6 19 10 -4 13
-20 12 -51z m-982 -31 c550 -195 674 -244 691 -273 33 -53 16 -155 -37 -226
l-20 -27 -265 201 c-146 110 -315 234 -377 275 -96 63 -135 94 -121 94 2 0 60
-20 129 -44z m1460 -51 c140 -24 359 -99 359 -122 0 -4 -25 -21 -55 -37 -64
-33 -104 -76 -142 -149 -22 -43 -27 -66 -27 -132 -1 -72 3 -88 32 -147 56
-115 161 -190 292 -211 58 -9 84 -8 151 7 95 20 95 21 127 -64 58 -149 65
-287 21 -407 -13 -35 -20 -65 -17 -68 3 -4 46 -9 94 -12 80 -5 170 4 215 22
29 11 43 -135 43 -430 0 -248 -23 -545 -43 -568 -4 -4 -13 3 -20 17 -19 34
-79 50 -131 35 -22 -7 -43 -10 -46 -6 -3 3 -10 70 -15 149 -16 243 -38 404
-69 499 -85 260 -235 440 -459 553 -206 105 -514 135 -751 73 -52 -14 -98 -22
-102 -18 -15 14 -56 110 -73 171 -14 47 -19 99 -19 185 0 196 51 333 198 534
42 57 76 109 76 116 0 8 6 16 13 18 27 12 270 6 348 -8z m475 -186 c81 -56 80
-54 39 -79 -73 -45 -95 -149 -46 -218 26 -38 96 -72 144 -72 44 0 103 23 133
51 20 18 21 18 36 2 24 -28 96 -156 129 -230 64 -142 124 -345 153 -516 6 -34
5 -38 -21 -48 -49 -19 -161 -32 -218 -24 -55 6 -56 7 -42 28 36 56 48 211 26
333 -11 65 -84 224 -103 224 -6 0 -29 -9 -52 -19 -97 -44 -229 -32 -326 31
-57 36 -90 73 -126 142 -23 44 -27 63 -27 141 0 104 18 148 86 216 40 40 108
78 140 79 9 0 42 -18 75 -41z m-1616 -202 c-32 -80 -72 -246 -95 -404 -10 -62
-18 -113 -19 -113 0 0 -77 -9 -171 -20 -316 -35 -440 -52 -449 -61 -17 -15 9
-30 91 -55 43 -13 137 -41 208 -63 72 -21 165 -49 208 -61 42 -13 77 -28 77
-34 0 -22 -130 -96 -264 -150 -128 -52 -420 -125 -436 -109 -3 2 -4 75 -4 161
2 139 5 170 32 272 61 237 146 404 298 581 80 93 150 157 246 221 l70 47 109
-95 c96 -84 107 -97 99 -117z m1785 48 c94 -106 96 -110 89 -129 -12 -30 -69
-56 -124 -56 -48 0 -56 3 -92 40 -39 39 -40 42 -36 93 5 56 28 99 63 115 27
13 42 4 100 -63z m454 -285 c525 -63 977 -197 1389 -410 86 -45 161 -86 166
-91 11 -10 -201 69 -384 143 -246 101 -539 184 -885 252 -312 61 -490 98 -497
102 -17 11 -6 24 20 24 15 0 101 -9 191 -20z m-1935 -301 c14 -17 29 -43 32
-57 3 -15 10 -37 15 -50 12 -31 12 -99 -1 -123 -14 -25 -30 -24 -201 6 -78 14
-196 32 -263 40 -67 9 -163 25 -214 36 -50 11 -96 18 -100 15 -9 -6 -183 42
-195 53 -5 5 22 11 60 14 97 8 791 87 835 96 3 0 18 -13 32 -30z m2121 -335
c511 -115 1020 -324 1415 -579 l96 -62 12 -114 c23 -218 34 -456 34 -742 0
-159 -2 -291 -5 -294 -3 -2 -52 11 -109 31 -173 59 -223 69 -353 69 -138 0
-220 -12 -359 -56 -205 -63 -416 -195 -618 -386 -38 -35 -59 -49 -62 -40 -28
101 -42 135 -74 185 -72 110 -171 175 -279 182 l-62 4 -6 47 c-4 25 -17 85
-29 134 l-23 87 36 -7 c73 -16 138 -10 164 15 52 49 57 157 13 238 l-23 41 22
139 c37 230 50 387 49 624 -1 204 -19 430 -40 508 -6 20 -4 22 17 18 13 -3 96
-22 184 -42z m-3323 -69 c-3 -19 -19 -34 -61 -55 -76 -39 -322 -229 -537 -416
-38 -33 -113 -93 -166 -133 l-96 -72 -6 -62 c-3 -34 -8 -208 -12 -387 -11
-528 9 -750 116 -1355 12 -66 26 -147 31 -180 14 -81 45 -226 65 -300 17 -63
92 -309 101 -332 3 -8 -8 -19 -31 -28 -49 -21 -50 -20 -63 23 -6 20 -23 78
-37 127 -103 344 -185 750 -226 1120 -40 365 -44 917 -10 1250 15 142 14 140
83 204 200 188 447 378 682 525 61 38 119 75 130 82 31 20 43 17 37 -11z
m2193 -30 c76 -21 196 -79 224 -109 21 -22 21 -23 4 -63 l-18 -40 -20 24 c-22
26 -71 56 -85 51 -5 -2 21 -32 56 -67 l64 -63 15 35 c8 20 15 48 15 63 0 27 0
27 21 8 63 -56 99 -153 99 -265 0 -201 36 -459 86 -625 13 -44 24 -83 24 -86
0 -11 -164 -134 -290 -218 l-125 -82 -7 28 c-3 16 -12 70 -20 121 l-13 91 40
12 c76 23 141 66 164 107 19 37 12 36 -38 -7 -81 -67 -158 -94 -271 -94 -103
0 -162 20 -194 66 -51 72 27 191 164 249 42 18 73 24 128 24 63 -1 71 1 56 12
-10 7 -32 13 -49 13 l-32 0 20 58 c25 73 19 188 -11 249 -22 42 -78 97 -119
116 -35 16 -10 27 62 27 94 0 176 -17 270 -56 47 -20 88 -34 91 -32 8 8 -91
131 -150 186 -74 70 -161 110 -265 122 -141 16 -257 -6 -521 -99 -131 -47
-160 -50 -160 -21 0 28 -34 44 -54 25 -46 -46 -45 -242 1 -314 14 -22 19 -23
97 -19 l81 4 -28 -55 c-57 -117 -56 -231 3 -325 54 -84 157 -126 266 -107 35
7 70 14 78 17 9 4 15 -6 19 -33 12 -74 108 -133 217 -133 28 0 50 -4 50 -8 0
-26 -129 -198 -197 -263 -250 -238 -561 -339 -893 -289 -147 23 -322 109 -444
219 -31 29 -61 49 -66 46 -5 -3 16 -49 47 -101 56 -96 113 -223 113 -251 0
-12 -7 -14 -31 -9 -17 3 -44 6 -60 6 -23 0 -33 9 -60 58 -18 31 -41 68 -52 82
l-19 25 7 -35 c4 -19 20 -57 36 -83 l30 -48 -43 5 c-24 3 -88 11 -143 17 -55
6 -128 17 -161 26 l-62 15 13 47 c13 48 32 91 41 91 3 0 22 -13 42 -29 20 -17
51 -33 67 -36 l30 -6 -24 18 c-75 58 -111 98 -137 156 -26 56 -29 72 -29 167
0 91 4 115 29 185 19 52 43 94 68 121 l39 43 -55 68 c-66 81 -117 173 -144
265 -25 80 -37 174 -28 221 6 32 10 35 74 52 37 10 184 58 327 108 423 145
634 214 735 241 126 32 342 73 460 86 52 5 111 12 130 14 82 10 356 -3 415
-19z m-129 -413 c23 -12 54 -36 69 -54 48 -57 58 -93 53 -198 -5 -121 -20
-152 -82 -170 -63 -17 -163 -85 -193 -131 -21 -32 -36 -42 -81 -55 -79 -23
-178 -16 -226 16 -74 51 -111 136 -104 240 11 155 133 297 306 357 85 30 195
28 258 -5z m-2011 -307 c14 -44 39 -104 56 -132 l29 -53 -63 -77 c-175 -218
-281 -436 -294 -608 -14 -184 71 -326 251 -419 79 -41 80 -42 91 -91 17 -75
80 -186 147 -259 l59 -65 -17 -82 c-24 -120 -16 -316 18 -421 26 -78 79 -179
123 -234 l25 -30 -98 13 c-53 7 -167 15 -252 17 l-155 3 -48 144 c-113 339
-214 803 -262 1209 -23 184 -31 636 -16 825 l12 149 52 60 c74 86 149 162 231
233 l71 62 7 -82 c3 -46 18 -118 33 -162z m4870 90 l46 -70 11 -215 c12 -225
17 -804 7 -814 -3 -3 -21 -1 -40 5 l-34 11 3 235 c5 255 -11 619 -34 803 -7
63 -14 117 -14 119 0 7 6 -1 55 -74z m-1928 -356 c-13 -106 -124 -289 -234
-385 -377 -327 -999 -582 -1598 -656 -168 -20 -630 -17 -770 5 -321 51 -422
81 -478 139 -20 21 -49 62 -64 91 -26 48 -28 61 -28 172 0 101 4 131 24 190
45 131 132 282 249 432 l48 62 16 -27 c9 -15 27 -39 40 -53 l24 -25 -73 -99
c-80 -107 -165 -271 -183 -350 -17 -73 -16 -184 2 -226 26 -60 91 -94 246
-128 151 -34 297 -46 567 -46 277 0 338 6 590 56 230 46 392 107 703 263 283
142 559 335 754 528 135 133 175 147 165 57z m-2878 -300 c-19 -88 -6 -210 29
-281 28 -57 29 -63 15 -84 -8 -13 -23 -48 -32 -78 l-17 -55 -41 19 c-79 35
-107 152 -68 288 17 57 114 257 121 249 3 -2 -1 -28 -7 -58z m2052 -74 c-48
-107 -223 -249 -385 -309 -54 -21 -100 -36 -102 -34 -2 2 20 16 49 31 133 69
193 107 268 171 79 67 160 163 176 209 l7 22 4 -22 c2 -12 -6 -43 -17 -68z
m718 -144 c33 -121 44 -239 32 -319 -13 -82 -31 -127 -77 -196 -19 -28 -34
-54 -34 -59 0 -18 52 30 71 66 23 43 28 45 56 15 59 -65 70 -148 27 -213 -42
-62 -81 -101 -194 -188 -58 -44 -179 -154 -270 -242 -91 -89 -221 -208 -290
-265 -69 -57 -145 -123 -170 -146 -92 -87 -431 -336 -554 -408 -44 -26 -53
-28 -115 -21 -179 18 -492 89 -634 144 -85 32 -171 98 -248 189 -105 124 -149
248 -156 437 -5 126 7 239 26 258 5 5 28 -2 55 -18 26 -15 49 -25 52 -23 2 3
-29 32 -69 64 -41 33 -95 84 -121 114 -51 59 -112 174 -123 229 -6 31 -4 34
13 27 41 -16 144 -35 247 -47 122 -13 124 -18 29 -71 -29 -17 -51 -32 -50 -34
11 -11 85 20 122 50 l44 36 124 0 123 -1 24 -52 c14 -30 53 -81 93 -121 46
-46 65 -72 59 -80 -15 -18 -39 -114 -50 -198 -6 -43 -22 -106 -36 -140 l-25
-62 21 -22 c36 -39 150 -92 224 -105 137 -24 329 4 485 70 283 121 508 404
604 761 16 61 41 191 51 260 5 42 9 48 52 70 170 90 319 186 443 288 82 68 86
70 101 52 9 -11 26 -55 38 -99z m1686 -131 c143 -30 385 -114 509 -176 88 -45
224 -135 290 -194 217 -192 376 -309 571 -418 254 -142 506 -217 769 -229 144
-7 145 -8 31 -64 -152 -74 -485 -54 -741 46 -239 93 -479 246 -669 425 -98 93
-169 150 -250 201 -177 113 -277 156 -439 189 -93 19 -129 22 -260 17 -103 -3
-181 -12 -245 -26 -343 -79 -673 -294 -943 -615 -140 -166 -279 -384 -294
-460 -5 -26 -54 -77 -54 -56 0 24 151 325 214 430 365 598 848 946 1316 949
68 0 137 -6 195 -19z m-1464 -115 c117 -40 239 -212 239 -337 0 -35 -9 -50
-79 -129 -164 -185 -376 -548 -475 -812 -18 -47 -46 -92 -94 -150 -223 -267
-418 -611 -529 -932 -40 -118 -91 -323 -114 -460 -18 -105 -22 -173 -23 -352
l0 -222 -96 94 c-248 245 -524 423 -870 558 -63 25 -136 51 -162 57 -43 11
-48 16 -71 68 -38 85 -47 127 -54 241 l-6 105 44 -35 c24 -20 66 -46 94 -59
45 -20 52 -21 75 -8 39 22 30 39 -40 79 -174 97 -333 319 -389 546 -29 114
-27 127 10 80 72 -87 314 -246 508 -332 304 -136 575 -190 681 -135 171 88
333 227 475 408 11 13 40 50 66 81 25 31 63 81 84 111 22 30 43 60 48 65 35
42 148 213 212 320 67 110 235 432 235 449 0 23 56 119 79 135 16 12 43 42 60
67 26 39 29 50 19 68 -7 11 -11 33 -9 48 4 38 -37 124 -74 157 -32 27 -32 29
-18 62 7 18 16 60 19 94 3 33 7 66 10 73 5 17 90 15 145 -3z m-896 -92 c-10
-85 -42 -229 -67 -303 l-21 -65 -14 62 c-9 37 -20 64 -30 67 -13 5 -15 0 -9
-35 4 -22 15 -58 26 -79 l19 -37 -35 -73 c-45 -95 -140 -240 -156 -240 -8 0
-30 -11 -51 -25 -71 -49 -235 -124 -323 -149 -100 -28 -157 -39 -329 -61 -139
-18 -188 -30 -209 -50 -12 -12 -20 -10 -57 17 -24 17 -48 34 -52 38 -5 4 3 30
17 57 16 30 31 84 40 143 22 145 37 191 65 201 23 9 22 10 -23 40 -55 37 -103
91 -140 159 l-27 50 28 0 c37 1 218 18 264 25 34 6 37 4 43 -22 11 -44 48
-111 64 -118 20 -8 27 2 13 18 -6 8 -20 40 -31 71 -14 42 -16 58 -7 60 7 2 57
11 112 21 55 9 153 30 219 46 65 17 121 28 123 25 3 -3 16 -36 28 -73 18 -53
24 -64 31 -49 4 11 1 44 -8 78 -9 32 -13 60 -9 62 3 2 40 14 81 26 41 13 119
40 172 60 95 37 97 38 100 17 3 -20 5 -20 19 7 11 19 37 39 75 57 32 15 61 28
63 28 2 1 0 -25 -4 -56z m2575 -381 l24 -9 -21 -12 c-13 -6 -83 -13 -160 -15
-164 -5 -247 -16 -408 -56 -390 -96 -790 -309 -1145 -609 -51 -43 -104 -77
-146 -95 -37 -15 -68 -25 -71 -23 -7 7 219 218 320 299 339 270 745 456 1121
512 56 9 117 18 136 20 58 7 323 -2 350 -12z m-297 -216 c123 -31 231 -77 321
-136 101 -66 102 -76 4 -31 -186 86 -358 130 -538 138 -220 9 -410 -42 -643
-174 -33 -18 -62 -32 -64 -29 -8 8 104 98 167 135 107 62 227 103 355 120 108
15 290 4 398 -23z m-1702 2 c-42 -110 -186 -365 -314 -558 -208 -313 -439
-570 -703 -783 -83 -67 -103 -70 -249 -37 -226 49 -472 159 -707 317 -121 80
-299 235 -287 248 4 3 19 -5 35 -18 129 -106 411 -194 774 -241 l115 -15 40
27 c240 163 483 346 626 472 47 41 126 109 174 150 48 41 158 143 244 226 131
128 248 234 258 234 1 0 -1 -10 -6 -22z m-966 -218 c-21 -21 -42 -37 -47 -34
-4 3 -50 -15 -101 -40 -50 -25 -115 -54 -143 -65 -88 -34 -476 -81 -490 -60
-10 16 37 28 187 49 275 37 404 72 544 145 44 23 82 43 85 44 2 0 -13 -17 -35
-39z m2931 -47 c-2 -10 -14 -61 -25 -113 -38 -177 -132 -524 -171 -624 l-10
-28 -47 42 c-26 23 -71 56 -100 73 -45 28 -52 36 -51 62 1 37 -11 62 -47 95
-37 35 -109 33 -192 -4 -62 -28 -62 -28 -110 -12 -26 10 -81 20 -120 23 -40 3
-73 8 -73 11 0 11 77 100 129 150 160 152 420 279 650 317 47 8 97 16 111 18
54 9 62 8 56 -10z m90 -55 c-26 -226 -97 -498 -187 -711 l-32 -78 -24 24 -24
24 55 183 c51 167 135 491 152 583 6 33 9 37 36 37 l31 0 -7 -62z m-1929 -496
c-122 -165 -199 -284 -258 -397 -161 -305 -277 -692 -310 -1032 -17 -179 -33
-148 -26 51 17 518 255 1075 621 1453 33 34 62 61 64 58 2 -2 -38 -62 -91
-133z m-2494 48 l77 -14 0 -68 c0 -55 -3 -68 -15 -68 -9 0 -62 11 -118 26
-386 96 -733 60 -1050 -109 -219 -116 -424 -322 -560 -561 -105 -184 -192
-459 -222 -701 -16 -128 -19 -429 -6 -555 7 -61 4 -91 -13 -160 -11 -47 -22
-87 -23 -89 -7 -10 -13 10 -32 99 -35 161 -52 318 -52 490 0 499 157 918 464
1237 267 277 564 418 1022 487 61 9 453 -2 528 -14z m3881 -16 c14 -15 26 -36
26 -48 0 -19 -6 -21 -58 -21 -86 -1 -159 -39 -247 -128 -41 -42 -82 -95 -96
-125 -13 -28 -29 -51 -36 -52 -6 0 -23 -19 -37 -42 -31 -51 -34 -33 -11 56 53
202 234 386 380 386 43 0 57 -5 79 -26z m-297 -12 c21 -12 20 -14 -36 -69 -96
-97 -166 -234 -179 -353 l-7 -64 -65 -23 c-36 -13 -109 -31 -162 -40 -83 -15
-110 -15 -179 -5 -139 20 -203 72 -202 163 2 150 238 333 508 395 72 16 289
14 322 -4z m316 -108 c216 -109 399 -338 496 -621 42 -122 69 -248 77 -353 l7
-85 -125 3 c-117 4 -166 -3 -239 -33 -13 -5 -19 4 -28 42 -37 148 -120 286
-250 413 -105 103 -124 118 -201 165 -54 33 -74 41 -103 44 -4 1 -15 17 -23
37 -53 127 133 377 314 423 1 1 35 -15 75 -35z m-4093 -379 c154 -30 340 -89
442 -141 41 -21 88 -64 88 -81 0 -15 -26 -18 -35 -4 -16 27 -178 91 -332 132
-274 73 -513 79 -758 18 -181 -45 -393 -148 -530 -257 -144 -115 -321 -312
-406 -454 -25 -42 -40 -58 -56 -58 -13 0 -23 4 -23 8 0 11 64 132 98 187 78
125 228 283 366 387 200 150 429 239 721 282 63 9 343 -3 425 -19z m3565 -65
c4 -11 18 -26 31 -33 l25 -13 -53 -36 c-95 -63 -309 -294 -431 -466 -46 -64
-55 -72 -77 -67 -14 3 -65 13 -115 22 -49 9 -91 17 -93 18 -3 2 54 110 86 160
56 89 144 195 234 281 l95 90 81 12 c44 7 105 21 134 32 68 24 75 24 83 0z
m-315 -592 c-7 -39 -79 -288 -86 -297 -6 -7 -87 30 -120 56 -20 14 -34 34 -34
47 0 14 38 58 116 133 64 62 120 111 124 108 4 -2 4 -24 0 -47z m-700 -29
c126 -14 166 -28 181 -66 12 -32 -1 -92 -26 -117 -14 -13 -22 -11 -73 23 -31
20 -105 66 -164 101 -60 35 -108 67 -108 72 0 5 19 7 43 4 23 -3 89 -11 147
-17z m488 -13 l54 -17 -56 -59 c-36 -38 -56 -67 -56 -82 0 -65 181 -153 239
-116 15 9 25 34 37 85 9 40 19 73 23 73 17 0 176 -147 226 -209 56 -70 62 -91
25 -91 -33 0 -100 -31 -100 -47 0 -8 -3 -13 -7 -11 -133 64 -223 98 -262 98
-14 0 -70 16 -126 35 -138 47 -256 62 -377 46 -51 -6 -102 -12 -113 -14 -18
-2 -20 5 -23 72 l-3 74 42 -38 c35 -32 46 -36 75 -32 63 10 114 70 129 149 6
34 4 41 -24 67 -27 25 -29 30 -14 35 40 11 259 -1 311 -18z m1664 -32 c46 -18
47 -19 54 -72 13 -102 -2 -159 -78 -307 -73 -141 -263 -410 -341 -483 -24 -23
-26 -23 -58 -7 -77 39 -118 116 -119 221 0 84 19 152 60 218 17 26 29 53 28
58 -7 20 -59 -37 -89 -97 l-30 -60 4 80 c3 66 9 91 32 134 16 29 42 64 58 77
l30 25 28 -33 c33 -39 35 -35 11 24 -11 24 -25 67 -32 96 -19 82 5 108 130
138 75 19 250 12 312 -12z m-4387 -18 c38 -15 78 -34 88 -44 32 -28 63 -84 71
-127 7 -38 7 -39 -11 -24 -52 46 -153 69 -305 69 -141 0 -301 -32 -422 -85
l-40 -17 30 35 c17 18 52 66 79 106 48 72 82 104 120 114 11 3 88 5 170 3 135
-3 157 -6 220 -30z m48 -174 c107 -36 143 -103 73 -136 -49 -23 -72 -20 -115
15 -52 41 -117 59 -237 66 -148 8 -294 -20 -339 -65 -21 -20 -27 -22 -40 -12
-35 29 -12 48 120 98 43 16 126 37 225 56 60 11 256 -2 313 -22z m-182 -106
c78 -14 139 -39 139 -57 0 -42 -83 -128 -154 -159 -38 -17 -58 -20 -95 -15
-38 5 -44 4 -33 -7 10 -10 55 -13 190 -12 182 0 251 11 353 57 l37 16 -29 -70
c-38 -93 -62 -215 -63 -321 l-1 -86 -50 -21 c-233 -96 -475 -132 -661 -100
l-63 11 -15 46 c-25 74 -38 209 -31 306 12 157 67 328 117 359 33 22 113 46
183 56 84 12 91 12 176 -3z m2677 -1 c2 -1 -17 -41 -41 -88 -58 -113 -80 -199
-82 -320 -1 -53 -5 -98 -11 -100 -14 -3 -43 63 -55 129 -16 85 -6 245 21 328
l22 68 71 -7 c40 -4 73 -8 75 -10z m-1886 -32 c10 -9 18 -20 18 -25 0 -4 -37
-8 -82 -9 -46 -1 -94 -5 -108 -9 -34 -11 -23 -12 110 -10 126 1 199 -13 288
-56 69 -34 147 -111 173 -171 40 -93 35 -241 -7 -235 -233 33 -425 67 -504 88
-76 21 -234 24 -267 6 -29 -16 -29 -12 -3 87 21 82 66 195 100 254 42 71 232
125 282 80z m2796 -55 c-4 -12 -63 -53 -218 -151 -33 -21 -64 -36 -69 -32 -13
7 -35 110 -28 128 3 9 45 22 119 35 99 19 129 24 186 31 8 0 12 -5 10 -11z"/>
<path d="M2870 6996 c-110 -39 -223 -114 -363 -240 -116 -104 -261 -298 -240
-320 15 -15 37 -1 125 80 149 138 323 244 460 281 37 10 99 18 151 18 48 0 87
2 87 4 0 2 -11 18 -24 36 -14 18 -37 54 -52 81 -31 58 -53 84 -68 84 -6 -1
-40 -11 -76 -24z"/>
<path d="M2682 6599 c-267 -93 -313 -452 -78 -610 57 -38 159 -65 215 -57 26
4 28 2 20 -13 -17 -32 -10 -94 14 -130 76 -112 241 -150 380 -86 63 29 113 69
133 109 9 16 14 31 12 33 -2 2 -30 -19 -63 -47 -82 -70 -149 -99 -228 -100
-90 0 -157 30 -197 90 -16 25 -30 55 -30 66 1 39 37 102 76 132 68 52 120 69
211 69 101 -1 96 17 -6 23 l-69 4 26 52 c23 44 27 63 27 141 0 77 -4 98 -27
148 -73 156 -253 232 -416 176z m236 -35 c131 -64 204 -223 168 -364 -23 -89
-49 -126 -110 -156 -28 -15 -66 -40 -84 -57 -30 -29 -37 -31 -102 -29 -116 3
-212 64 -266 169 -26 52 -29 68 -29 153 0 115 22 167 101 240 91 82 209 99
322 44z"/>
<path d="M2764 6381 c-60 -37 -114 -124 -114 -186 0 -32 33 -87 64 -106 99
-60 261 41 281 176 7 49 -9 81 -54 112 -44 30 -132 32 -177 4z"/>
<path d="M4400 6359 c-7 -12 -10 -53 -9 -96 4 -75 4 -75 -26 -88 -28 -13 -21
-19 17 -16 17 2 23 -10 34 -74 6 -35 39 -115 48 -115 3 0 -9 86 -22 155 -10
46 -8 51 14 72 25 23 31 43 15 43 -6 0 -13 -4 -16 -10 -16 -26 -25 -3 -25 64
0 78 -11 102 -30 65z"/>
<path d="M2169 6343 c-15 -38 3 -113 39 -167 21 -31 27 -51 24 -76 -6 -54 25
-166 59 -216 16 -24 32 -44 34 -44 2 0 -9 37 -24 83 -28 82 -47 177 -36 177 3
0 22 -11 43 -25 20 -13 53 -27 72 -31 l35 -6 -45 27 c-107 63 -170 156 -170
253 0 57 -14 68 -31 25z"/>
<path d="M3796 6595 c-115 -41 -187 -207 -122 -282 22 -26 30 -28 93 -28 125
1 213 74 213 180 0 64 -23 103 -73 126 -50 22 -60 22 -111 4z"/>
<path d="M4431 5326 c-1 -17 4 -66 10 -110 10 -69 9 -91 -5 -144 -17 -69 -62
-143 -102 -169 -38 -24 -14 -40 29 -19 19 9 51 16 70 16 78 0 88 -64 28 -186
-72 -147 -178 -266 -348 -393 -285 -212 -644 -331 -995 -331 -232 0 -414 54
-524 154 l-58 53 -4 71 c-5 88 18 143 85 202 59 51 100 60 149 29 25 -15 35
-18 32 -8 -2 8 -21 23 -43 33 -34 17 -44 18 -84 7 -93 -25 -154 -101 -166
-208 -6 -53 -4 -68 20 -122 40 -89 109 -137 276 -191 432 -142 1096 40 1476
404 112 106 171 183 217 280 45 95 51 126 32 170 -16 39 -72 72 -108 63 -49
-13 6 44 63 66 51 19 119 79 119 103 0 11 -12 6 -41 -18 -22 -18 -54 -42 -71
-52 l-30 -19 8 34 c5 19 9 77 8 129 -1 74 -6 105 -22 140 -20 43 -21 44 -21
16z"/>
<path d="M2460 4810 c0 -5 13 -24 29 -43 l30 -33 -47 -52 c-26 -30 -69 -64
-97 -77 -37 -18 -44 -24 -27 -25 13 0 40 8 61 18 l37 18 -4 -52 c-6 -73 14
-78 29 -7 14 65 44 136 64 153 10 8 24 6 55 -10 23 -12 51 -20 62 -18 15 2 3
12 -45 37 -37 19 -81 49 -99 68 -32 33 -48 41 -48 23z"/>
</g>
</svg>
